<svg width="161" height="48" viewBox="0 0 161 48" fill="none" xmlns="http://www.w3.org/2000/svg">
<path d="M41.3709 19.1417L28.4706 26.2474V13.4888L41.3709 19.1417Z" fill="#1A73EA"/>
<path d="M28.4706 13.4888V26.2474L13.9691 34.2301V21.4714L28.4706 13.4888Z" fill="#6C72DC"/>
<path d="M42.4397 30.2709L9.97791 47.7152V36.4244L13.9691 34.2302L28.4706 26.2476L28.7821 26.3379L42.4397 30.2709Z" fill="#004BE9"/>
<path d="M41.3709 19.1421L28.4706 26.2478L28.7821 26.3381L42.4397 30.2711L41.3709 19.1421Z" fill="#1A7AF6"/>
<path d="M13.9691 21.4717V34.2303L1.06482 28.5736L13.9691 21.4717Z" fill="#6C7EE8"/>
<path d="M13.6575 21.3768L0 17.4438L1.06878 28.5729L13.973 21.4709L13.6575 21.3768Z" fill="#93AAFD"/>
<path d="M32.4617 0V11.2909L28.4706 13.4888L13.9691 21.4715L13.6575 21.3811L0 17.4481L32.4617 0Z" fill="#2CDAFF"/>
<path d="M13.9691 21.4714L28.4706 26.2474V13.4888L13.9691 21.4714Z" fill="#1A62C5"/>
<g clip-path="url(#clip0_54_3246)">
<path d="M69.2637 15.7418L65.8672 16.8201C65.7193 15.9533 65.2896 15.1593 64.578 14.4415C63.8663 13.7238 62.8384 13.3632 61.4942 13.3632C60.3838 13.3632 59.4659 13.6822 58.7405 14.3167C58.0185 14.9512 57.6541 15.714 57.6541 16.6016C57.6541 18.1445 58.5239 19.1084 60.2635 19.4898L63.471 20.1555C65.3996 20.5369 66.8882 21.3101 67.9402 22.4717C68.9887 23.6367 69.5113 25.0201 69.5113 26.6289C69.5113 28.4908 68.8031 30.0927 67.3867 31.4345C65.9703 32.7763 64.0451 33.4489 61.6145 33.4489C58.9915 33.4489 56.9459 32.7555 55.4814 31.3721C54.0135 29.9852 53.1849 28.3729 52.9958 26.5318L56.5196 25.5159C56.6468 26.7849 57.1488 27.8528 58.0289 28.7196C58.9089 29.5864 60.1053 30.0198 61.6145 30.0198C62.914 30.0198 63.9145 29.7286 64.6192 29.1461C65.3205 28.5636 65.6712 27.8181 65.6712 26.9097C65.6712 26.1677 65.4099 25.5298 64.8839 24.9889C64.3579 24.448 63.6257 24.0735 62.6803 23.862L59.5346 23.1963C57.802 22.8392 56.4234 22.1111 55.4058 21.0085C54.3882 19.9094 53.8794 18.5329 53.8794 16.8825C53.8794 14.9998 54.6254 13.3806 56.114 12.0283C57.6026 10.6761 59.3868 10 61.4633 10C63.8319 10 65.6471 10.5756 66.9054 11.7302C68.1636 12.8847 68.9509 14.2196 69.2637 15.7418Z" fill="white"/>
<path d="M74.4865 39.0001H70.8699V17.5206H74.3937V19.6148C74.7925 18.9178 75.4216 18.3354 76.281 17.8707C77.1405 17.4061 78.1375 17.1738 79.2685 17.1738C81.4722 17.1738 83.2014 17.9297 84.4597 19.4414C85.7179 20.9531 86.3471 22.8844 86.3471 25.2317C86.3471 27.579 85.687 29.5207 84.3634 31.0532C83.0433 32.5857 81.3003 33.352 79.1413 33.352C78.0928 33.352 77.1577 33.1509 76.3395 32.7487C75.5213 32.3465 74.9025 31.8403 74.4831 31.2266V39.0001H74.4865ZM82.6995 25.2317C82.6995 23.7928 82.3214 22.6347 81.5685 21.7575C80.8121 20.8803 79.8186 20.44 78.581 20.44C77.364 20.44 76.3739 20.8803 75.6072 21.7575C74.8406 22.6347 74.459 23.7928 74.459 25.2317C74.459 26.6914 74.8406 27.8633 75.6072 28.7544C76.3739 29.642 77.364 30.0858 78.581 30.0858C79.798 30.0858 80.7881 29.642 81.5547 28.7544C82.3145 27.8633 82.6995 26.6914 82.6995 25.2317Z" fill="white"/>
<path d="M91.9474 23.8967V32.9705H88.2964V10H91.9474V19.0114C92.934 17.7215 94.3917 17.0766 96.3203 17.0766C98.1252 17.0766 99.5072 17.6487 100.473 18.7895C101.439 19.9302 101.921 21.4038 101.921 23.1998V32.9739H98.2696V23.8343C98.2696 22.7976 98.0186 21.9689 97.5133 21.3448C97.0113 20.7207 96.2138 20.4087 95.124 20.4087C94.1579 20.4087 93.3982 20.738 92.8447 21.3934C92.2877 22.0452 91.9886 22.8808 91.9474 23.8967Z" fill="white"/>
<path d="M115.259 27.5789L118.343 28.5636C117.903 29.9817 117.078 31.1502 115.875 32.069C114.668 32.9878 113.186 33.449 111.423 33.449C109.243 33.449 107.39 32.7001 105.871 31.1953C104.351 29.694 103.591 27.683 103.591 25.1657C103.591 22.7976 104.33 20.8525 105.809 19.3269C107.287 17.8048 109.033 17.042 111.048 17.042C113.396 17.042 115.232 17.7666 116.552 19.216C117.872 20.6653 118.536 22.6173 118.536 25.0687C118.536 25.724 118.505 26.1158 118.439 26.244H107.239C107.28 27.409 107.706 28.3695 108.514 29.1323C109.322 29.8951 110.292 30.273 111.423 30.273C113.393 30.2765 114.671 29.375 115.259 27.5789ZM107.332 23.5465H114.85C114.809 22.5722 114.469 21.7609 113.829 21.1021C113.19 20.4468 112.272 20.1174 111.076 20.1174C109.986 20.1174 109.102 20.4607 108.432 21.1472C107.761 21.8407 107.394 22.6381 107.332 23.5465Z" fill="white"/>
<path d="M129.416 17.4232V21.1678C128.997 21.1054 128.598 21.0742 128.22 21.0742C125.473 21.0742 124.098 22.5859 124.098 25.6128V32.9738H120.451V17.5203H124.005V19.9959C124.363 19.1707 124.937 18.5189 125.735 18.0438C126.532 17.5688 127.433 17.3296 128.44 17.3296C128.777 17.3296 129.1 17.3608 129.416 17.4232Z" fill="white"/>
<path d="M137.471 17.0454C139.778 17.0454 141.683 17.8186 143.182 19.3615C144.681 20.9044 145.43 22.8634 145.43 25.2316C145.43 27.5997 144.681 29.5621 143.182 31.1155C141.683 32.6688 139.778 33.4489 137.471 33.4489C135.185 33.4489 133.291 32.6723 131.792 31.1155C130.293 29.5621 129.544 27.5997 129.544 25.2316C129.544 22.8634 130.293 20.9044 131.792 19.3615C133.291 17.8151 135.182 17.0454 137.471 17.0454ZM134.436 28.8306C135.264 29.7078 136.275 30.1481 137.471 30.1481C138.668 30.1481 139.678 29.7147 140.507 28.8479C141.336 27.9811 141.752 26.7745 141.752 25.2316C141.752 23.7094 141.339 22.5202 140.507 21.6603C139.678 20.8039 138.668 20.374 137.471 20.374C136.275 20.374 135.264 20.8004 134.436 21.6603C133.607 22.5167 133.191 23.706 133.191 25.2316C133.191 26.7537 133.604 27.9534 134.436 28.8306Z" fill="white"/>
<path d="M151.027 24.0562V32.9704H147.376V17.5204H150.93V19.5834C151.412 18.7374 152.058 18.1064 152.866 17.6972C153.674 17.2846 154.537 17.0801 155.462 17.0801C157.266 17.0801 158.638 17.6522 159.584 18.7929C160.529 19.9336 161 21.4072 161 23.2032V32.9774H157.349V23.8343C157.349 22.7976 157.098 21.9689 156.593 21.3448C156.091 20.7207 155.293 20.4086 154.203 20.4086C153.196 20.4086 152.416 20.7519 151.859 21.4384C151.305 22.1249 151.027 22.9987 151.027 24.0562Z" fill="white"/>
<path d="M161.003 32.2876H157.352V32.9741H161.003V32.2876Z" fill="#6424FF"/>
<path d="M101.921 32.2876H98.2695V32.9741H101.921V32.2876Z" fill="#6424FF"/>
<path d="M65.8678 16.8203L69.2644 15.742C69.2162 15.5027 69.1544 15.267 69.0822 15.0347L65.6821 16.1303C65.7612 16.3557 65.8265 16.588 65.8678 16.8203Z" fill="#6424FF"/>
<path d="M151.03 32.2876H147.379V32.9741H151.03V32.2876Z" fill="#3EEDBF"/>
<path d="M124.102 32.2876H120.451V32.9741H124.102V32.2876Z" fill="#3EEDBF"/>
<path d="M91.9474 32.2876H88.2964V32.9741H91.9474V32.2876Z" fill="#3EEDBF"/>
<path d="M53.1031 27.2151L56.6476 26.1888C56.5994 25.9703 56.5479 25.7484 56.5272 25.5161L53.4091 26.4141L53 26.532C53.0241 26.7643 53.0584 26.9932 53.1031 27.2151Z" fill="#3EEDBF"/>
<path d="M74.5071 38.3135H70.8561V39H74.5071V38.3135Z" fill="#3EEDBF"/>
<path d="M138.221 20.4572V17.0697C137.997 17.0524 137.77 17.042 137.537 17.042V20.3948C137.774 20.3948 138.008 20.4226 138.221 20.4572Z" fill="#6424FF"/>
<path d="M137.54 20.3948V17.042H137.478C137.272 17.042 137.055 17.0524 136.859 17.0593V20.4364C137.055 20.4087 137.265 20.3913 137.478 20.3913H137.54V20.3948Z" fill="#3EEDBF"/>
<path d="M128.732 21.1162C128.959 21.13 129.176 21.1335 129.416 21.1716V17.427C129.196 17.3819 128.966 17.3542 128.732 17.3403V21.1162Z" fill="#6424FF"/>
<path d="M118.343 28.5603L116.621 28.009L115.259 27.5791C115.184 27.8079 115.098 28.0194 115.002 28.2205L118.109 29.2052C118.199 28.9937 118.274 28.7857 118.343 28.5603Z" fill="#6424FF"/>
</g>
<defs>
<clipPath id="clip0_54_3246">
<rect width="108" height="29" fill="white" transform="translate(53 10)"/>
</clipPath>
</defs>
</svg>
