<svg xmlns="http://www.w3.org/2000/svg" viewBox="0 0 1160 400"><defs><style>.cls-1{fill:#030b1c;}.cls-2{fill:#01abff;}.cls-3{fill:#0057ff;}</style></defs><g id="Layer_2" data-name="Layer 2"><g id="Layer_1-2" data-name="Layer 1"><path class="cls-1" d="M450.1,259.3c32.56,0,55.5-17.51,55.5-46.17,0-31.29-25.78-39.39-50-47-23.16-7-29.07-12-29.07-21.44,0-8.75,7.44-15.32,20.11-15.32,15.52,0,23.82,8.1,29.28,19.7l25.35-14.67C491,112.91,471.73,100,446.6,100c-26.22,0-50.26,16.63-50.26,45.51,0,29.11,22.73,39,46.11,45.74,22.73,6.56,33,10.94,33,22.32,0,8.53-6.34,16.19-24.48,16.19-19,0-29.72-9.19-35.18-23.42L390,221.44C398.3,244.2,418.85,259.3,450.1,259.3Z"/><path class="cls-1" d="M576.63,143.76c-16,0-27.53,5.91-35.4,16V146.83H513V300h28.19V243.33c7.87,10.06,19.45,16,35.4,16,29.28,0,53.32-25.17,53.32-57.77S605.91,143.76,576.63,143.76Zm-5.24,88.63c-17.27,0-30.16-12.48-30.16-30.86s12.89-30.85,30.16-30.85c17.48,0,30.37,12.47,30.37,30.85S588.87,232.39,571.39,232.39Z"/><path class="cls-1" d="M699.66,143.76c-14.64,0-26,5.47-32.56,15.32v-56H638.91V256.24H667.1V197.16c0-19,10.27-27.14,24-27.14,12.67,0,21.63,7.66,21.63,22.54v63.68H741V189.06C741,160,722.82,143.76,699.66,143.76Z"/><path class="cls-1" d="M777.93,213.13h82.38a64.88,64.88,0,0,0,1.1-11.6c0-32.16-22.95-57.77-55.29-57.77-34.31,0-57.69,25.17-57.69,57.77s23.16,57.77,59.87,57.77c21,0,37.37-8.53,47.64-23.41l-22.72-13.13c-4.81,6.34-13.55,10.94-24.48,10.94C793.88,233.7,781.86,227.57,777.93,213.13Zm-.44-21.88c3.28-14,13.55-22.1,28.63-22.1,11.8,0,23.6,6.34,27.1,22.1Z"/><path class="cls-1" d="M898.35,165.65V146.83H870.16V256.24h28.19v-52.3c0-23,18.58-29.54,33.22-27.79V144.64C917.8,144.64,904,150.77,898.35,165.65Z"/><path class="cls-1" d="M991.13,259.3c32.12,0,57.91-25.17,57.91-57.77s-25.79-57.77-57.91-57.77-57.69,25.17-57.69,57.77S959,259.3,991.13,259.3Zm0-27.57c-16.61,0-29.5-12.47-29.5-30.2s12.89-30.2,29.5-30.2c16.82,0,29.72,12.48,29.72,30.2S1008,231.73,991.13,231.73Z"/><path class="cls-1" d="M1118.7,143.76c-14.64,0-26,5.47-32.57,15.32V146.83h-28.19V256.24h28.19V197.16c0-19,10.28-27.14,24-27.14,12.68,0,21.64,7.66,21.64,22.54v63.68H1160V189.06C1160,160,1141.86,143.76,1118.7,143.76Z"/><path class="cls-2" d="M255.36,5.77v77a11.62,11.62,0,0,1-5.6,9.93l-.48.28-18,10.37L126.5,163.61l-12.72,7.31,0,0a3.33,3.33,0,0,0-.61.35,5.81,5.81,0,0,0,0,9.65l.48.28L128,189.52l49,28.2,0,0,.87.51h0a5.77,5.77,0,0,1,0,9.49l-.85.48L87.49,279.78l-.5.29a11.44,11.44,0,0,1-5.53,1.41,11.72,11.72,0,0,1-5-1.14l-.5-.26-.76-.45L23.28,249.78,6.09,239.89c-.16-.08-.32-.18-.49-.28a11.5,11.5,0,0,1-4-4.12A11.29,11.29,0,0,1,0,229.7V149.35a11.54,11.54,0,0,1,5.47-9.83.51.51,0,0,1,.13-.09,4.83,4.83,0,0,1,.59-.32l.08-.06,17-9.78,57.37-33L149.78,56.5,246.3,1a3.33,3.33,0,0,1,.48-.28A5.68,5.68,0,0,1,249.55,0a5.81,5.81,0,0,1,5.82,5.8Z"/><path class="cls-3" d="M336,170.3v80.35a11.59,11.59,0,0,1-5.6,9.91l-.49.28-17.19,9.9L291,283.24l-35.62,20.49L186.22,343.5,89.72,399a4.62,4.62,0,0,1-.48.28,5.69,5.69,0,0,1-2.78.71,5.81,5.81,0,0,1-5.82-5.8v-77a11.55,11.55,0,0,1,5.6-9.91c.23-.15.48-.28.71-.4l17.8-10.25L209.5,236.37l12.55-7.22h0l.81-.46.08-.05a5.8,5.8,0,0,0,2.49-4.76,5.9,5.9,0,0,0-2.57-4.82,4.79,4.79,0,0,0-.58-.33L208,210.47l-49-28.21h0l-.94-.55h0a5.76,5.76,0,0,1,0-9.39s0,0,0,0l1-.56a.71.71,0,0,1,.15-.08l89.32-51.4.7-.4a11.65,11.65,0,0,1,10.79,0l.76.44,52.06,29.94,17.19,9.9a4,4,0,0,1,.48.28,11.42,11.42,0,0,1,4,4.11,11.3,11.3,0,0,1,1.57,5.8Z"/></g></g></svg>